<svg width="171" height="33" viewBox="0 0 171 33" fill="none" xmlns="http://www.w3.org/2000/svg">
<path d="M50.5456 23.504C50.3723 23.088 50.1383 22.5593 49.8436 21.918C49.5663 21.2767 49.2629 20.5833 48.9336 19.838C48.6043 19.0927 48.2489 18.33 47.8676 17.55C47.5036 16.7527 47.1569 16.0073 46.8276 15.314C46.4983 14.6033 46.1863 13.9707 45.8916 13.416C45.6143 12.8613 45.3889 12.4367 45.2156 12.142C45.0249 14.1873 44.8689 16.406 44.7476 18.798C44.6263 21.1727 44.5223 23.5733 44.4356 26H41.9656C42.0349 24.44 42.1129 22.8713 42.1996 21.294C42.2863 19.6993 42.3816 18.1393 42.4856 16.614C42.6069 15.0713 42.7283 13.572 42.8496 12.116C42.9883 10.66 43.1356 9.282 43.2916 7.982H45.5016C45.9696 8.74467 46.4723 9.646 47.0096 10.686C47.5469 11.726 48.0843 12.818 48.6216 13.962C49.1589 15.0887 49.6789 16.224 50.1816 17.368C50.6843 18.4947 51.1436 19.526 51.5596 20.462C51.9756 19.526 52.4349 18.4947 52.9376 17.368C53.4403 16.224 53.9603 15.0887 54.4976 13.962C55.0349 12.818 55.5723 11.726 56.1096 10.686C56.6469 9.646 57.1496 8.74467 57.6176 7.982H59.8276C60.4169 13.7887 60.8589 19.7947 61.1536 26H58.6836C58.5969 23.5733 58.4929 21.1727 58.3716 18.798C58.2503 16.406 58.0943 14.1873 57.9036 12.142C57.7303 12.4367 57.4963 12.8613 57.2016 13.416C56.9243 13.9707 56.6209 14.6033 56.2916 15.314C55.9623 16.0073 55.6069 16.7527 55.2256 17.55C54.8616 18.33 54.5149 19.0927 54.1856 19.838C53.8563 20.5833 53.5443 21.2767 53.2496 21.918C52.9723 22.5593 52.7469 23.088 52.5736 23.504H50.5456Z" fill="white"/>
<path d="M69.528 24.258C70.1 24.258 70.6027 24.2493 71.036 24.232C71.4867 24.1973 71.8594 24.1453 72.154 24.076V20.046C71.9807 19.9593 71.6947 19.89 71.296 19.838C70.9147 19.7687 70.4467 19.734 69.892 19.734C69.528 19.734 69.138 19.76 68.722 19.812C68.3234 19.864 67.9507 19.9767 67.604 20.15C67.2747 20.306 66.9974 20.5313 66.772 20.826C66.5467 21.1033 66.434 21.476 66.434 21.944C66.434 22.8107 66.7114 23.4173 67.266 23.764C67.8207 24.0933 68.5747 24.258 69.528 24.258ZM69.32 12.142C70.2907 12.142 71.1054 12.272 71.764 12.532C72.44 12.7747 72.9774 13.13 73.376 13.598C73.792 14.0487 74.0867 14.5947 74.26 15.236C74.4334 15.86 74.52 16.5533 74.52 17.316V25.766C74.312 25.8007 74.0174 25.8527 73.636 25.922C73.272 25.974 72.856 26.026 72.388 26.078C71.92 26.13 71.4087 26.1733 70.854 26.208C70.3167 26.26 69.7794 26.286 69.242 26.286C68.4794 26.286 67.7774 26.208 67.136 26.052C66.4947 25.896 65.94 25.6533 65.472 25.324C65.004 24.9773 64.64 24.5267 64.38 23.972C64.12 23.4173 63.99 22.75 63.99 21.97C63.99 21.2247 64.1374 20.5833 64.432 20.046C64.744 19.5087 65.16 19.0753 65.68 18.746C66.2 18.4167 66.8067 18.174 67.5 18.018C68.1934 17.862 68.9214 17.784 69.684 17.784C69.9267 17.784 70.178 17.8013 70.438 17.836C70.698 17.8533 70.9407 17.888 71.166 17.94C71.4087 17.9747 71.6167 18.0093 71.79 18.044C71.9634 18.0787 72.0847 18.1047 72.154 18.122V17.446C72.154 17.0473 72.1107 16.6573 72.024 16.276C71.9374 15.8773 71.7814 15.5307 71.556 15.236C71.3307 14.924 71.0187 14.6813 70.62 14.508C70.2387 14.3173 69.736 14.222 69.112 14.222C68.3147 14.222 67.6127 14.2827 67.006 14.404C66.4167 14.508 65.9747 14.6207 65.68 14.742L65.394 12.74C65.706 12.6013 66.226 12.4713 66.954 12.35C67.682 12.2113 68.4707 12.142 69.32 12.142Z" fill="white"/>
<path d="M78.536 12.87C79.0907 12.7313 79.8274 12.584 80.746 12.428C81.6647 12.272 82.722 12.194 83.918 12.194C84.9927 12.194 85.8854 12.35 86.596 12.662C87.3067 12.9567 87.87 13.3813 88.286 13.936C88.7194 14.4733 89.0227 15.1233 89.196 15.886C89.3694 16.6487 89.456 17.4893 89.456 18.408V26H87.038V18.928C87.038 18.096 86.9774 17.3853 86.856 16.796C86.752 16.2067 86.57 15.73 86.31 15.366C86.05 15.002 85.7034 14.742 85.27 14.586C84.8367 14.4127 84.2994 14.326 83.658 14.326C83.398 14.326 83.1294 14.3347 82.852 14.352C82.5747 14.3693 82.306 14.3953 82.046 14.43C81.8034 14.4473 81.578 14.4733 81.37 14.508C81.1794 14.5427 81.0407 14.5687 80.954 14.586V26H78.536V12.87Z" fill="white"/>
<path d="M91.4227 28.522C91.6133 28.6087 91.856 28.6867 92.1507 28.756C92.4627 28.8427 92.766 28.886 93.0607 28.886C94.014 28.886 94.7594 28.6693 95.2967 28.236C95.834 27.82 96.3194 27.1353 96.7527 26.182C95.6607 24.102 94.638 21.9007 93.6847 19.578C92.7487 17.238 91.9687 14.872 91.3447 12.48H93.9447C94.1353 13.26 94.3607 14.1007 94.6207 15.002C94.898 15.9033 95.2014 16.8307 95.5307 17.784C95.86 18.7373 96.2153 19.6907 96.5967 20.644C96.978 21.5973 97.3767 22.516 97.7927 23.4C98.4514 21.58 99.0233 19.7773 99.5087 17.992C99.994 16.2067 100.453 14.3693 100.887 12.48H103.383C102.759 15.028 102.065 17.4807 101.303 19.838C100.54 22.178 99.7167 24.3707 98.8327 26.416C98.486 27.196 98.122 27.8633 97.7407 28.418C97.3767 28.99 96.9694 29.458 96.5187 29.822C96.068 30.186 95.5567 30.4547 94.9847 30.628C94.43 30.8013 93.7974 30.888 93.0867 30.888C92.896 30.888 92.6967 30.8707 92.4887 30.836C92.2807 30.8187 92.0727 30.784 91.8647 30.732C91.674 30.6973 91.492 30.654 91.3187 30.602C91.1627 30.55 91.05 30.5067 90.9807 30.472L91.4227 28.522Z" fill="white"/>
<path d="M108.793 24.596C108.793 25.064 108.637 25.4713 108.325 25.818C108.013 26.1647 107.588 26.338 107.051 26.338C106.513 26.338 106.089 26.1647 105.777 25.818C105.465 25.4713 105.309 25.064 105.309 24.596C105.309 24.128 105.465 23.7207 105.777 23.374C106.089 23.0273 106.513 22.854 107.051 22.854C107.588 22.854 108.013 23.0273 108.325 23.374C108.637 23.7207 108.793 24.128 108.793 24.596Z" fill="white"/>
<path d="M117.028 24.206C119.663 24.206 120.98 23.3047 120.98 21.502C120.98 20.9473 120.859 20.4793 120.616 20.098C120.391 19.6993 120.079 19.3613 119.68 19.084C119.282 18.7893 118.822 18.538 118.302 18.33C117.8 18.122 117.262 17.914 116.69 17.706C116.032 17.4807 115.408 17.2293 114.818 16.952C114.229 16.6573 113.718 16.3193 113.284 15.938C112.851 15.5393 112.504 15.0713 112.244 14.534C112.002 13.9967 111.88 13.3467 111.88 12.584C111.88 11.0067 112.418 9.776 113.492 8.892C114.567 8.008 116.049 7.566 117.938 7.566C119.03 7.566 120.018 7.68734 120.902 7.93C121.804 8.15534 122.462 8.40667 122.878 8.684L122.072 10.738C121.708 10.5127 121.162 10.296 120.434 10.088C119.724 9.86267 118.892 9.75 117.938 9.75C117.453 9.75 117.002 9.802 116.586 9.906C116.17 10.01 115.806 10.166 115.494 10.374C115.182 10.582 114.931 10.8507 114.74 11.18C114.567 11.492 114.48 11.8647 114.48 12.298C114.48 12.7833 114.576 13.1907 114.766 13.52C114.957 13.8493 115.226 14.144 115.572 14.404C115.919 14.6467 116.318 14.872 116.768 15.08C117.236 15.288 117.748 15.496 118.302 15.704C119.082 16.016 119.793 16.328 120.434 16.64C121.093 16.952 121.656 17.3247 122.124 17.758C122.61 18.1913 122.982 18.7113 123.242 19.318C123.502 19.9073 123.632 20.6267 123.632 21.476C123.632 23.0533 123.052 24.2667 121.89 25.116C120.746 25.9653 119.126 26.39 117.028 26.39C116.318 26.39 115.659 26.338 115.052 26.234C114.463 26.1473 113.934 26.0433 113.466 25.922C112.998 25.7833 112.591 25.6447 112.244 25.506C111.915 25.35 111.655 25.22 111.464 25.116L112.218 23.036C112.617 23.2613 113.224 23.5127 114.038 23.79C114.853 24.0673 115.85 24.206 117.028 24.206Z" fill="white"/>
<path d="M131.412 18.564C131.932 18.9627 132.478 19.4567 133.05 20.046C133.64 20.6353 134.212 21.2767 134.766 21.97C135.338 22.646 135.876 23.3393 136.378 24.05C136.881 24.7433 137.306 25.3933 137.652 26H134.818C134.454 25.3933 134.03 24.778 133.544 24.154C133.076 23.5127 132.582 22.906 132.062 22.334C131.542 21.7447 131.014 21.2073 130.476 20.722C129.939 20.2367 129.428 19.8293 128.942 19.5V26H126.524V6.24L128.942 5.824V18.148C129.358 17.732 129.818 17.2727 130.32 16.77C130.823 16.2673 131.317 15.756 131.802 15.236C132.288 14.716 132.747 14.222 133.18 13.754C133.614 13.2687 133.986 12.844 134.298 12.48H137.132C136.734 12.9133 136.3 13.39 135.832 13.91C135.364 14.43 134.879 14.9587 134.376 15.496C133.874 16.016 133.362 16.5447 132.842 17.082C132.34 17.602 131.863 18.096 131.412 18.564Z" fill="white"/>
<path d="M142.526 26H140.108V12.48H142.526V26ZM141.304 10.036C140.871 10.036 140.498 9.89734 140.186 9.62C139.892 9.32534 139.744 8.93534 139.744 8.45C139.744 7.96467 139.892 7.58334 140.186 7.306C140.498 7.01134 140.871 6.864 141.304 6.864C141.738 6.864 142.102 7.01134 142.396 7.306C142.708 7.58334 142.864 7.96467 142.864 8.45C142.864 8.93534 142.708 9.32534 142.396 9.62C142.102 9.89734 141.738 10.036 141.304 10.036Z" fill="white"/>
<path d="M146.684 12.87C147.239 12.7313 147.976 12.584 148.894 12.428C149.813 12.272 150.87 12.194 152.066 12.194C153.141 12.194 154.034 12.35 154.744 12.662C155.455 12.9567 156.018 13.3813 156.434 13.936C156.868 14.4733 157.171 15.1233 157.344 15.886C157.518 16.6487 157.604 17.4893 157.604 18.408V26H155.186V18.928C155.186 18.096 155.126 17.3853 155.004 16.796C154.9 16.2067 154.718 15.73 154.458 15.366C154.198 15.002 153.852 14.742 153.418 14.586C152.985 14.4127 152.448 14.326 151.806 14.326C151.546 14.326 151.278 14.3347 151 14.352C150.723 14.3693 150.454 14.3953 150.194 14.43C149.952 14.4473 149.726 14.4733 149.518 14.508C149.328 14.5427 149.189 14.5687 149.102 14.586V26H146.684V12.87Z" fill="white"/>
<path d="M164.76 24.258C165.748 24.258 166.476 24.128 166.944 23.868C167.429 23.608 167.672 23.192 167.672 22.62C167.672 22.0307 167.438 21.5627 166.97 21.216C166.502 20.8693 165.731 20.4793 164.656 20.046C164.136 19.838 163.633 19.63 163.148 19.422C162.68 19.1967 162.273 18.9367 161.926 18.642C161.579 18.3473 161.302 17.992 161.094 17.576C160.886 17.16 160.782 16.6487 160.782 16.042C160.782 14.846 161.224 13.9013 162.108 13.208C162.992 12.4973 164.197 12.142 165.722 12.142C166.103 12.142 166.485 12.168 166.866 12.22C167.247 12.2547 167.603 12.3067 167.932 12.376C168.261 12.428 168.547 12.4887 168.79 12.558C169.05 12.6273 169.249 12.688 169.388 12.74L168.946 14.82C168.686 14.6813 168.279 14.5427 167.724 14.404C167.169 14.248 166.502 14.17 165.722 14.17C165.046 14.17 164.457 14.3087 163.954 14.586C163.451 14.846 163.2 15.262 163.2 15.834C163.2 16.1287 163.252 16.3887 163.356 16.614C163.477 16.8393 163.651 17.0473 163.876 17.238C164.119 17.4113 164.413 17.576 164.76 17.732C165.107 17.888 165.523 18.0527 166.008 18.226C166.649 18.4687 167.221 18.7113 167.724 18.954C168.227 19.1793 168.651 19.448 168.998 19.76C169.362 20.072 169.639 20.4533 169.83 20.904C170.021 21.3373 170.116 21.8747 170.116 22.516C170.116 23.764 169.648 24.7087 168.712 25.35C167.793 25.9913 166.476 26.312 164.76 26.312C163.564 26.312 162.628 26.208 161.952 26C161.276 25.8093 160.817 25.662 160.574 25.558L161.016 23.478C161.293 23.582 161.735 23.738 162.342 23.946C162.949 24.154 163.755 24.258 164.76 24.258Z" fill="white"/>
<path d="M20.1729 25.4261L27.5139 12.7111L20.1729 -0.00389798L5.49087 -0.00389862L20.1729 25.4261Z" fill="white"/>
<path d="M7.34215 7.57811L0.00235748 20.291L7.34215 33.0039L22.0217 33.0039L7.34215 7.57811Z" fill="white"/>
</svg>
